<?xml version="1.0" encoding="UTF-8"?>
<!DOCTYPE svg PUBLIC "-//W3C//DTD SVG 1.1//EN" "http://www.w3.org/Graphics/SVG/1.1/DTD/svg11.dtd">
<svg xmlns="http://www.w3.org/2000/svg" version="1.1" width="512px" height="512px" style="shape-rendering:geometricPrecision; text-rendering:geometricPrecision; image-rendering:optimizeQuality; fill-rule:evenodd; clip-rule:evenodd" xmlns:xlink="http://www.w3.org/1999/xlink">
<g><path style="opacity:0.997" fill="#080404" d="M 240.5,-0.5 C 252.833,-0.5 265.167,-0.5 277.5,-0.5C 277.5,-0.166667 277.5,0.166667 277.5,0.5C 277.738,2.40435 278.738,3.73769 280.5,4.5C 280.5,4.83333 280.5,5.16667 280.5,5.5C 280.5,20.5 280.5,35.5 280.5,50.5C 301.503,50.3334 322.503,50.5 343.5,51C 346.854,51.4552 350.187,51.9552 353.5,52.5C 355.898,52.2594 357.898,52.9261 359.5,54.5C 360.514,55.6737 361.847,56.3404 363.5,56.5C 364.514,57.6737 365.847,58.3404 367.5,58.5C 369.027,58.427 370.027,59.0937 370.5,60.5C 370.973,61.9063 371.973,62.573 373.5,62.5C 374.5,62.8333 375.167,63.5 375.5,64.5C 377.5,67.1667 379.833,69.5 382.5,71.5C 383.08,73.7488 384.413,75.4154 386.5,76.5C 386.427,78.0269 387.094,79.0269 388.5,79.5C 390.625,82.0878 391.958,85.0878 392.5,88.5C 392.41,91.1522 393.076,93.4855 394.5,95.5C 395.274,96.1471 396.274,96.4805 397.5,96.5C 399.03,96.3601 400.03,95.6935 400.5,94.5C 400.845,91.8021 402.178,89.8021 404.5,88.5C 405.5,88.1667 406.167,87.5 406.5,86.5C 406.5,85.8333 406.833,85.5 407.5,85.5C 409.027,85.573 410.027,84.9063 410.5,83.5C 410.842,82.6618 411.508,82.3284 412.5,82.5C 414.463,75.5762 415.13,68.2428 414.5,60.5C 414.5,60.1667 414.5,59.8333 414.5,59.5C 415.833,58.8333 416.833,57.8333 417.5,56.5C 419.764,55.7814 422.097,55.448 424.5,55.5C 425.492,55.3284 426.158,55.6618 426.5,56.5C 426.427,58.0269 427.094,59.0269 428.5,59.5C 427.868,67.5729 428.535,75.2395 430.5,82.5C 432.153,82.6596 433.486,83.3263 434.5,84.5C 434.973,85.9063 435.973,86.573 437.5,86.5C 437.738,88.4044 438.738,89.7377 440.5,90.5C 440.427,92.0269 441.094,93.0269 442.5,93.5C 443.338,93.8417 443.672,94.5084 443.5,95.5C 443.231,97.4286 443.731,99.0953 445,100.5C 445.717,99.9558 446.217,99.2891 446.5,98.5C 448.404,98.2624 449.738,97.2624 450.5,95.5C 452.404,95.2624 453.738,94.2624 454.5,92.5C 456.509,90.9348 458.843,89.9348 461.5,89.5C 469.138,88.6869 476.804,88.3536 484.5,88.5C 484.833,88.5 485.167,88.5 485.5,88.5C 486.78,89.9313 488.447,90.5979 490.5,90.5C 492.514,90.3915 494.18,91.0582 495.5,92.5C 496.634,95.0338 498.634,96.3671 501.5,96.5C 503.5,97.8333 505.167,99.5 506.5,101.5C 506.427,103.027 507.094,104.027 508.5,104.5C 510.22,107.889 510.887,111.556 510.5,115.5C 506.214,123.975 499.547,129.642 490.5,132.5C 488.015,133.26 488.015,134.26 490.5,135.5C 490.5,135.833 490.5,136.167 490.5,136.5C 490.66,138.153 491.326,139.486 492.5,140.5C 493.931,141.78 494.598,143.447 494.5,145.5C 495.29,152.471 495.623,159.471 495.5,166.5C 494.083,172.419 490.416,176.252 484.5,178C 479.509,179.503 474.509,179.67 469.5,178.5C 467.485,177.076 465.152,176.41 462.5,176.5C 458.556,176.032 454.889,174.699 451.5,172.5C 450.479,173.901 449.479,175.235 448.5,176.5C 446.96,178.838 446.294,181.505 446.5,184.5C 445.54,189.086 443.54,193.086 440.5,196.5C 439.522,196.811 438.855,197.478 438.5,198.5C 442.452,199.494 446.452,200.16 450.5,200.5C 454.327,200.752 457.66,202.085 460.5,204.5C 460.973,205.906 461.973,206.573 463.5,206.5C 464.5,206.833 465.167,207.5 465.5,208.5C 466.833,210.5 468.5,212.167 470.5,213.5C 471.08,215.749 472.413,217.415 474.5,218.5C 475.674,219.514 476.34,220.847 476.5,222.5C 476.12,224.698 476.787,226.365 478.5,227.5C 479.323,235.471 479.656,243.471 479.5,251.5C 479.167,254.167 478.833,256.833 478.5,259.5C 477.365,265.109 474.699,269.776 470.5,273.5C 468.5,274.833 466.833,276.5 465.5,278.5C 465.5,279.167 465.167,279.5 464.5,279.5C 461.952,281.013 462.285,282.013 465.5,282.5C 467.167,283.5 468.5,284.833 469.5,286.5C 469.738,288.404 470.738,289.738 472.5,290.5C 472.427,292.027 473.094,293.027 474.5,293.5C 474.427,295.027 475.094,296.027 476.5,296.5C 476.402,298.553 477.069,300.22 478.5,301.5C 479.323,309.471 479.656,317.471 479.5,325.5C 479.167,328.167 478.833,330.833 478.5,333.5C 477.817,338.252 475.817,342.252 472.5,345.5C 471.094,345.973 470.427,346.973 470.5,348.5C 463.353,357.407 454.02,362.073 442.5,362.5C 441.127,362.343 439.793,362.51 438.5,363C 439.044,363.717 439.711,364.217 440.5,364.5C 441.338,364.842 441.672,365.508 441.5,366.5C 441.427,368.027 442.094,369.027 443.5,369.5C 445.293,371.426 446.293,373.759 446.5,376.5C 447.347,385.472 447.68,394.472 447.5,403.5C 447.5,403.833 447.5,404.167 447.5,404.5C 445.926,406.102 445.259,408.102 445.5,410.5C 439.805,425.858 428.805,434.525 412.5,436.5C 405.8,436.17 399.134,436.503 392.5,437.5C 392.942,438.739 393.609,439.739 394.5,440.5C 394.676,443.727 395.343,446.727 396.5,449.5C 397.7,452.698 397.7,456.031 396.5,459.5C 395.232,461.905 394.565,464.572 394.5,467.5C 394.5,467.833 394.5,468.167 394.5,468.5C 393.069,469.78 392.402,471.447 392.5,473.5C 391.326,474.514 390.66,475.847 390.5,477.5C 390.5,477.833 390.5,478.167 390.5,478.5C 389.094,478.973 388.427,479.973 388.5,481.5C 387.567,484.37 385.9,486.704 383.5,488.5C 382.094,488.973 381.427,489.973 381.5,491.5C 372.006,502.077 360.34,508.744 346.5,511.5C 287.833,511.5 229.167,511.5 170.5,511.5C 170.5,510.833 170.167,510.5 169.5,510.5C 166.093,508.926 162.427,507.926 158.5,507.5C 155.515,506.674 152.849,505.341 150.5,503.5C 150.027,502.094 149.027,501.427 147.5,501.5C 145.246,500.876 143.579,499.543 142.5,497.5C 141.738,495.738 140.404,494.738 138.5,494.5C 137.5,494.167 136.833,493.5 136.5,492.5C 136.573,490.973 135.906,489.973 134.5,489.5C 133.5,489.167 132.833,488.5 132.5,487.5C 132.573,485.973 131.906,484.973 130.5,484.5C 130.573,482.973 129.906,481.973 128.5,481.5C 125.328,476.988 123.328,471.988 122.5,466.5C 121.167,458.167 121.167,449.833 122.5,441.5C 122.5,441.167 122.5,440.833 122.5,440.5C 124.104,439.713 124.771,438.38 124.5,436.5C 117.833,436.5 111.167,436.5 104.5,436.5C 104.167,436.5 103.833,436.5 103.5,436.5C 101.485,435.076 99.1522,434.41 96.5,434.5C 94.4471,434.598 92.7804,433.931 91.5,432.5C 91.0269,431.094 90.0269,430.427 88.5,430.5C 86.9731,430.573 85.9731,429.906 85.5,428.5C 84.7377,426.738 83.4044,425.738 81.5,425.5C 80.5,425.167 79.8333,424.5 79.5,423.5C 79.573,421.973 78.9063,420.973 77.5,420.5C 76.8333,420.5 76.5,420.167 76.5,419.5C 76.573,417.973 75.9063,416.973 74.5,416.5C 73.3263,415.486 72.6596,414.153 72.5,412.5C 72.405,410.214 71.7384,408.214 70.5,406.5C 69.5655,405.432 69.2322,404.099 69.5,402.5C 69.1537,393.073 69.8203,383.739 71.5,374.5C 71.3284,373.508 71.6618,372.842 72.5,372.5C 73.6737,371.486 74.3404,370.153 74.5,368.5C 75.9063,368.027 76.573,367.027 76.5,365.5C 79.3341,363.351 79.0007,362.351 75.5,362.5C 70.7983,364.009 65.9649,365.009 61,365.5C 58.0746,365.477 55.2413,364.977 52.5,364C 45.718,359.733 41.0514,353.899 38.5,346.5C 38.3404,344.847 37.6737,343.514 36.5,342.5C 36.313,340.436 35.813,338.436 35,336.5C 34.0228,335.226 33.1894,335.226 32.5,336.5C 22.3328,341.246 12.3328,341.246 2.5,336.5C 2.3404,334.847 1.67373,333.514 0.5,332.5C 0.166667,332.5 -0.166667,332.5 -0.5,332.5C -0.5,325.833 -0.5,319.167 -0.5,312.5C -0.166667,312.5 0.166667,312.5 0.5,312.5C 1.73838,310.786 2.40505,308.786 2.5,306.5C 2.6596,304.847 3.32627,303.514 4.5,302.5C 5.90632,302.027 6.57298,301.027 6.5,299.5C 8.26242,298.738 9.26242,297.404 9.5,295.5C 9.83333,294.5 10.5,293.833 11.5,293.5C 14.0892,292.581 16.0892,290.914 17.5,288.5C 19.0269,288.573 20.0269,287.906 20.5,286.5C 22.1815,284.992 24.1815,283.992 26.5,283.5C 29.4951,283.706 32.1617,283.04 34.5,281.5C 37.1873,281.664 39.854,281.497 42.5,281C 41.9341,280.005 41.2674,279.172 40.5,278.5C 39.0735,276.852 38.2401,274.852 38,272.5C 37.3523,267.796 37.519,263.129 38.5,258.5C 37.4594,253.773 34.7927,250.106 30.5,247.5C 30.1667,246.5 29.5,245.833 28.5,245.5C 24.5985,243.119 23.2652,239.786 24.5,235.5C 25.9063,235.027 26.573,234.027 26.5,232.5C 26.8417,231.662 27.5084,231.328 28.5,231.5C 31.8066,231.063 34.8066,231.73 37.5,233.5C 38.4287,232.311 38.762,230.978 38.5,229.5C 38.2594,227.102 38.9261,225.102 40.5,223.5C 41.6737,222.486 42.3404,221.153 42.5,219.5C 43.9063,219.027 44.573,218.027 44.5,216.5C 45.9063,216.027 46.573,215.027 46.5,213.5C 46.8333,212.5 47.5,211.833 48.5,211.5C 51.0892,210.581 53.0892,208.914 54.5,206.5C 56.0269,206.573 57.0269,205.906 57.5,204.5C 59.0269,204.573 60.0269,203.906 60.5,202.5C 60.8333,202.5 61.1667,202.5 61.5,202.5C 64.4855,202.097 67.1522,201.097 69.5,199.5C 72.5719,199.817 75.5719,199.484 78.5,198.5C 77.7215,195.415 76.0549,193.082 73.5,191.5C 72.6618,191.158 72.3284,190.492 72.5,189.5C 72.405,187.214 71.7384,185.214 70.5,183.5C 69.677,175.529 69.3437,167.529 69.5,159.5C 71.0395,157.162 71.7062,154.495 71.5,151.5C 71.3284,150.508 71.6618,149.842 72.5,149.5C 73.6737,148.486 74.3404,147.153 74.5,145.5C 75.9063,145.027 76.573,144.027 76.5,142.5C 78.2624,141.738 79.2624,140.404 79.5,138.5C 80.5,136.833 81.8333,135.5 83.5,134.5C 85.7488,133.92 87.4154,132.587 88.5,130.5C 90.1815,128.992 92.1815,127.992 94.5,127.5C 98.4268,127.074 102.093,126.074 105.5,124.5C 106.167,124.5 106.833,124.5 107.5,124.5C 113.206,124.829 118.872,124.495 124.5,123.5C 124.376,122.893 124.043,122.56 123.5,122.5C 122.596,121.791 122.263,120.791 122.5,119.5C 120.823,109.007 121.49,98.6738 124.5,88.5C 125.674,87.4863 126.34,86.153 126.5,84.5C 126.5,84.1667 126.5,83.8333 126.5,83.5C 127.906,83.0269 128.573,82.0269 128.5,80.5C 129.906,80.0269 130.573,79.0269 130.5,77.5C 131.906,77.0269 132.573,76.0269 132.5,74.5C 134.262,73.7377 135.262,72.4044 135.5,70.5C 136.5,68.8333 137.833,67.5 139.5,66.5C 142.427,65.2427 144.761,63.2427 146.5,60.5C 148.027,60.573 149.027,59.9063 149.5,58.5C 150.514,57.3263 151.847,56.6596 153.5,56.5C 155.153,56.3404 156.486,55.6737 157.5,54.5C 159.102,52.9261 161.102,52.2594 163.5,52.5C 165.898,52.7406 167.898,52.0739 169.5,50.5C 170.5,50.5 171.5,50.5 172.5,50.5C 193.833,50.5 215.167,50.5 236.5,50.5C 236.5,35.8333 236.5,21.1667 236.5,6.5C 236.5,5.83333 236.5,5.16667 236.5,4.5C 237.906,4.02694 238.573,3.02694 238.5,1.5C 239.167,0.833333 239.833,0.166667 240.5,-0.5 Z M 399.5,112.5 C 400.095,115.317 401.428,117.65 403.5,119.5C 404.29,120.794 405.29,121.961 406.5,123C 402.514,123.499 398.514,123.666 394.5,123.5C 394.5,122.5 394.5,121.5 394.5,120.5C 395.404,119.791 395.737,118.791 395.5,117.5C 396.451,116.081 396.784,114.415 396.5,112.5C 397.5,112.5 398.5,112.5 399.5,112.5 Z"/></g>
<g><path style="opacity:0.576" fill="#9a9a9a" d="M 277.5,0.5 C 279.262,1.26231 280.262,2.59565 280.5,4.5C 278.738,3.73769 277.738,2.40435 277.5,0.5 Z"/></g>
<g><path style="opacity:0.125" fill="#d6d6d6" d="M 238.5,1.5 C 238.573,3.02694 237.906,4.02694 236.5,4.5C 236.427,2.97306 237.094,1.97306 238.5,1.5 Z"/></g>
<g><path style="opacity:1" fill="#876b61" d="M 251.5,14.5 C 256.167,14.5 260.833,14.5 265.5,14.5C 265.5,26.5 265.5,38.5 265.5,50.5C 260.833,50.5 256.167,50.5 251.5,50.5C 251.5,38.5 251.5,26.5 251.5,14.5 Z"/></g>
<g><path style="opacity:0.321" fill="#c4c4c4" d="M 236.5,6.5 C 236.5,21.1667 236.5,35.8333 236.5,50.5C 215.167,50.5 193.833,50.5 172.5,50.5C 193.327,49.5027 214.327,49.1694 235.5,49.5C 235.171,34.9903 235.504,20.6569 236.5,6.5 Z"/></g>
<g><path style="opacity:0.306" fill="#c6c6c6" d="M 280.5,5.5 C 281.496,19.9905 281.829,34.6572 281.5,49.5C 302.503,49.3334 323.503,49.5 344.5,50C 347.851,50.0572 350.851,50.8906 353.5,52.5C 350.187,51.9552 346.854,51.4552 343.5,51C 322.503,50.5 301.503,50.3334 280.5,50.5C 280.5,35.5 280.5,20.5 280.5,5.5 Z"/></g>
<g><path style="opacity:0.573" fill="#a7a7a7" d="M 169.5,50.5 C 167.898,52.0739 165.898,52.7406 163.5,52.5C 165.102,50.9261 167.102,50.2594 169.5,50.5 Z"/></g>
<g><path style="opacity:0.094" fill="#c7c7c7" d="M 359.5,54.5 C 361.38,54.2291 362.713,54.8958 363.5,56.5C 361.847,56.3404 360.514,55.6737 359.5,54.5 Z"/></g>
<g><path style="opacity:0.033" fill="#e8e8e8" d="M 424.5,55.5 C 422.097,55.448 419.764,55.7814 417.5,56.5C 418.312,55.0069 419.645,54.3402 421.5,54.5C 422.726,54.5195 423.726,54.8529 424.5,55.5 Z"/></g>
<g><path style="opacity:0.341" fill="#bbbbbb" d="M 157.5,54.5 C 156.486,55.6737 155.153,56.3404 153.5,56.5C 154.287,54.8958 155.62,54.2291 157.5,54.5 Z"/></g>
<g><path style="opacity:0.102" fill="#cdcdcd" d="M 363.5,56.5 C 365.38,56.2291 366.713,56.8958 367.5,58.5C 365.847,58.3404 364.514,57.6737 363.5,56.5 Z"/></g>
<g><path style="opacity:0.545" fill="#939393" d="M 426.5,56.5 C 427.906,56.9731 428.573,57.9731 428.5,59.5C 427.094,59.0269 426.427,58.0269 426.5,56.5 Z"/></g>
<g><path style="opacity:0.173" fill="#c5c5c5" d="M 417.5,56.5 C 416.833,57.8333 415.833,58.8333 414.5,59.5C 414.5,57.5 415.5,56.5 417.5,56.5 Z"/></g>
<g><path style="opacity:0.349" fill="#bababa" d="M 149.5,58.5 C 149.027,59.9063 148.027,60.573 146.5,60.5C 146.973,59.0937 147.973,58.427 149.5,58.5 Z"/></g>
<g><path style="opacity:0.02" fill="#d3d3d3" d="M 370.5,60.5 C 372.027,60.427 373.027,61.0937 373.5,62.5C 371.973,62.573 370.973,61.9063 370.5,60.5 Z"/></g>
<g><path style="opacity:0.226" fill="#aaaaaa" d="M 414.5,60.5 C 415.13,68.2428 414.463,75.5762 412.5,82.5C 413.136,75.067 413.802,67.7336 414.5,60.5 Z"/></g>
<g><path style="opacity:0.537" fill="#8a8a8a" d="M 146.5,60.5 C 144.761,63.2427 142.427,65.2427 139.5,66.5C 141.239,63.7573 143.573,61.7573 146.5,60.5 Z"/></g>
<g><path style="opacity:0.494" fill="#909090" d="M 428.5,59.5 C 429.268,60.2625 429.768,61.2625 430,62.5C 430.5,69.1583 430.666,75.825 430.5,82.5C 428.535,75.2395 427.868,67.5729 428.5,59.5 Z"/></g>
<g><path style="opacity:0.012" fill="#cccdce" d="M 375.5,64.5 C 378.833,65.8333 381.167,68.1667 382.5,71.5C 379.833,69.5 377.5,67.1667 375.5,64.5 Z"/></g>
<g><path style="opacity:1" fill="#eba842" d="M 342.5,65.5 C 342.5,65.8333 342.5,66.1667 342.5,66.5C 285.499,66.3333 228.499,66.5 171.5,67C 167.991,68.7594 164.325,69.926 160.5,70.5C 163.437,68.3445 166.771,66.8445 170.5,66C 227.832,65.5 285.166,65.3333 342.5,65.5 Z"/></g>
<g><path style="opacity:0.514" fill="#9c9c9c" d="M 135.5,70.5 C 135.262,72.4044 134.262,73.7377 132.5,74.5C 132.738,72.5956 133.738,71.2623 135.5,70.5 Z"/></g>
<g><path style="opacity:1" fill="#fea727" d="M 342.5,66.5 C 349.65,78.5908 350.15,90.9241 344,103.5C 340.94,106.614 337.44,109.114 333.5,111C 267.763,111.165 202.763,111.665 138.5,112.5C 138.517,114.565 138.85,116.565 139.5,118.5C 136.822,115.818 135.489,112.485 135.5,108.5C 136.853,91.0997 145.187,78.433 160.5,70.5C 164.325,69.926 167.991,68.7594 171.5,67C 228.499,66.5 285.499,66.3333 342.5,66.5 Z"/></g>
<g><path style="opacity:0.137" fill="#b7b7b8" d="M 382.5,71.5 C 384.587,72.5846 385.92,74.2512 386.5,76.5C 384.413,75.4154 383.08,73.7488 382.5,71.5 Z"/></g>
<g><path style="opacity:0.341" fill="#979797" d="M 132.5,74.5 C 132.573,76.0269 131.906,77.0269 130.5,77.5C 130.427,75.9731 131.094,74.9731 132.5,74.5 Z"/></g>
<g><path style="opacity:1" fill="#f57b02" d="M 352.5,68.5 C 359.403,70.7818 365.07,74.7818 369.5,80.5C 369.869,82.4412 370.536,84.2745 371.5,86C 369.485,87.5553 369.152,89.3886 370.5,91.5C 371.386,90.675 371.719,89.675 371.5,88.5C 372.5,88.5 373.5,88.5 374.5,88.5C 374.67,89.8221 374.337,90.9887 373.5,92C 374.448,92.4828 375.448,92.6495 376.5,92.5C 376.5,93.8333 376.5,95.1667 376.5,96.5C 374.801,96.3398 373.134,96.5065 371.5,97C 372.308,97.3076 372.975,97.8076 373.5,98.5C 372.227,102.063 370.894,105.563 369.5,109C 370.795,109.702 372.128,110.369 373.5,111C 372.646,112.022 371.646,112.855 370.5,113.5C 369.38,112.167 368.047,111.667 366.5,112C 369.223,115.003 370.889,118.503 371.5,122.5C 319.664,122.168 267.997,122.501 216.5,123.5C 210.57,122.999 207.903,125.666 208.5,131.5C 202.167,131.5 195.833,131.5 189.5,131.5C 190.039,128.305 189.039,125.805 186.5,124C 173.171,123.5 159.837,123.333 146.5,123.5C 144.217,123.392 142.217,122.559 140.5,121C 139.748,120.329 139.414,119.496 139.5,118.5C 138.85,116.565 138.517,114.565 138.5,112.5C 202.833,113.131 267.166,113.298 331.5,113C 335.248,113.22 338.248,111.887 340.5,109C 341.793,108.51 343.127,108.343 344.5,108.5C 344.3,103.778 346.3,102.111 350.5,103.5C 350.833,102.833 351.167,102.167 351.5,101.5C 350.833,100.167 350.167,98.8333 349.5,97.5C 350.167,94.5 350.833,91.5 351.5,88.5C 349.434,84.0854 349.101,79.5854 350.5,75C 349.584,74.6258 348.75,74.1258 348,73.5C 347.727,71.8988 347.227,70.3988 346.5,69C 348.473,68.5045 350.473,68.3379 352.5,68.5 Z"/></g>
<g><path style="opacity:0.122" fill="#dddddd" d="M 386.5,76.5 C 387.906,76.9731 388.573,77.9731 388.5,79.5C 387.094,79.0269 386.427,78.0269 386.5,76.5 Z"/></g>
<g><path style="opacity:0.278" fill="#a4a6a3" d="M 130.5,77.5 C 130.573,79.0269 129.906,80.0269 128.5,80.5C 128.427,78.9731 129.094,77.9731 130.5,77.5 Z"/></g>
<g><path style="opacity:0.133" fill="#cfced1" d="M 128.5,80.5 C 128.573,82.0269 127.906,83.0269 126.5,83.5C 126.427,81.9731 127.094,80.9731 128.5,80.5 Z"/></g>
<g><path style="opacity:1" fill="#f38508" d="M 342.5,66.5 C 342.5,66.1667 342.5,65.8333 342.5,65.5C 346.025,66.2097 349.358,67.2097 352.5,68.5C 350.473,68.3379 348.473,68.5045 346.5,69C 347.227,70.3988 347.727,71.8988 348,73.5C 348.75,74.1258 349.584,74.6258 350.5,75C 349.101,79.5854 349.434,84.0854 351.5,88.5C 350.833,91.5 350.167,94.5 349.5,97.5C 350.167,98.8333 350.833,100.167 351.5,101.5C 351.167,102.167 350.833,102.833 350.5,103.5C 346.3,102.111 344.3,103.778 344.5,108.5C 343.127,108.343 341.793,108.51 340.5,109C 338.248,111.887 335.248,113.22 331.5,113C 267.166,113.298 202.833,113.131 138.5,112.5C 202.763,111.665 267.763,111.165 333.5,111C 337.44,109.114 340.94,106.614 344,103.5C 350.15,90.9241 349.65,78.5908 342.5,66.5 Z"/></g>
<g><path style="opacity:0.42" fill="#9a9a9a" d="M 410.5,83.5 C 410.027,84.9063 409.027,85.573 407.5,85.5C 407.973,84.0937 408.973,83.427 410.5,83.5 Z"/></g>
<g><path style="opacity:0.004" fill="#dedede" d="M 434.5,84.5 C 436.027,84.427 437.027,85.0937 437.5,86.5C 435.973,86.573 434.973,85.9063 434.5,84.5 Z"/></g>
<g><path style="opacity:0.09" fill="#cccccc" d="M 126.5,84.5 C 126.34,86.153 125.674,87.4863 124.5,88.5C 124.229,86.6203 124.896,85.287 126.5,84.5 Z"/></g>
<g><path style="opacity:0.18" fill="#c1c1c1" d="M 406.5,86.5 C 406.167,87.5 405.5,88.1667 404.5,88.5C 404.5,87.1667 405.167,86.5 406.5,86.5 Z"/></g>
<g><path style="opacity:0.376" fill="#a4a4a4" d="M 437.5,86.5 C 439.262,87.2623 440.262,88.5956 440.5,90.5C 438.738,89.7377 437.738,88.4044 437.5,86.5 Z"/></g>
<g><path style="opacity:0.588" fill="#a3a3a3" d="M 484.5,88.5 C 476.804,88.3536 469.138,88.6869 461.5,89.5C 469.072,86.1783 476.739,85.845 484.5,88.5 Z"/></g>
<g><path style="opacity:0.271" fill="#bcbcbc" d="M 485.5,88.5 C 487.553,88.4021 489.22,89.0687 490.5,90.5C 488.447,90.5979 486.78,89.9313 485.5,88.5 Z"/></g>
<g><path style="opacity:0.604" fill="#787878" d="M 392.5,88.5 C 394.074,90.1016 394.741,92.1016 394.5,94.5C 394.5,94.8333 394.5,95.1667 394.5,95.5C 393.076,93.4855 392.41,91.1522 392.5,88.5 Z"/></g>
<g><path style="opacity:0.188" fill="#a3a3a3" d="M 440.5,90.5 C 441.906,90.9731 442.573,91.9731 442.5,93.5C 441.094,93.0269 440.427,92.0269 440.5,90.5 Z"/></g>
<g><path style="opacity:0.298" fill="#a4a4a4" d="M 454.5,92.5 C 453.738,94.2624 452.404,95.2624 450.5,95.5C 451.262,93.7376 452.596,92.7376 454.5,92.5 Z"/></g>
<g><path style="opacity:0.004" fill="#b3b3b3" d="M 495.5,92.5 C 497.853,93.3403 499.853,94.6736 501.5,96.5C 498.634,96.3671 496.634,95.0338 495.5,92.5 Z"/></g>
<g><path style="opacity:0.068" fill="#ecebeb" d="M 394.5,94.5 C 396.5,95.8333 398.5,95.8333 400.5,94.5C 400.03,95.6935 399.03,96.3601 397.5,96.5C 396.274,96.4805 395.274,96.1471 394.5,95.5C 394.5,95.1667 394.5,94.8333 394.5,94.5 Z"/></g>
<g><path style="opacity:0.357" fill="#898a8c" d="M 450.5,95.5 C 449.738,97.2624 448.404,98.2624 446.5,98.5C 447.262,96.7376 448.596,95.7376 450.5,95.5 Z"/></g>
<g><path style="opacity:0.369" fill="#b3b3b3" d="M 443.5,95.5 C 444.1,96.9002 445.1,97.9002 446.5,98.5C 446.217,99.2891 445.717,99.9558 445,100.5C 443.731,99.0953 443.231,97.4286 443.5,95.5 Z"/></g>
<g><path style="opacity:0.439" fill="#989898" d="M 506.5,101.5 C 507.906,101.973 508.573,102.973 508.5,104.5C 507.094,104.027 506.427,103.027 506.5,101.5 Z"/></g>
<g><path style="opacity:0.31" fill="#9e9e9e" d="M 124.5,88.5 C 121.49,98.6738 120.823,109.007 122.5,119.5C 121.778,119.082 121.278,118.416 121,117.5C 120.333,110.833 120.333,104.167 121,97.5C 121.725,94.2102 122.892,91.2102 124.5,88.5 Z"/></g>
<g><path style="opacity:1" fill="#46565f" d="M 417.5,96.5 C 426.491,94.9934 430.325,98.66 429,107.5C 425.661,112.584 421.327,113.584 416,110.5C 412.399,105.353 412.899,100.686 417.5,96.5 Z"/></g>
<g><path style="opacity:1" fill="#f8eedb" d="M 469.5,102.5 C 479.402,101.355 487.735,104.355 494.5,111.5C 485.75,120.714 475.416,122.881 463.5,118C 460.244,116.541 457.577,114.374 455.5,111.5C 459.549,107.479 464.216,104.479 469.5,102.5 Z"/></g>
<g><path style="opacity:0.776" fill="#5f5f5f" d="M 508.5,104.5 C 509.5,105.167 510.5,105.833 511.5,106.5C 511.5,109.5 511.5,112.5 511.5,115.5C 511.167,115.5 510.833,115.5 510.5,115.5C 510.887,111.556 510.22,107.889 508.5,104.5 Z"/></g>
<g><path style="opacity:0.294" fill="#9f9f9f" d="M 399.5,112.5 C 398.5,112.5 397.5,112.5 396.5,112.5C 396.784,114.415 396.451,116.081 395.5,117.5C 395.5,115.5 395.5,113.5 395.5,111.5C 397.099,111.232 398.432,111.566 399.5,112.5 Z"/></g>
<g><path style="opacity:1" fill="#e67b12" d="M 369.5,80.5 C 374.612,85.0493 377.946,90.716 379.5,97.5C 375.609,97.8921 373.609,100.059 373.5,104C 373.419,109.418 376.085,111.918 381.5,111.5C 380.561,118.069 376.895,122.069 370.5,123.5C 319.167,123.5 267.833,123.5 216.5,123.5C 267.997,122.501 319.664,122.168 371.5,122.5C 370.889,118.503 369.223,115.003 366.5,112C 368.047,111.667 369.38,112.167 370.5,113.5C 371.646,112.855 372.646,112.022 373.5,111C 372.128,110.369 370.795,109.702 369.5,109C 370.894,105.563 372.227,102.063 373.5,98.5C 372.975,97.8076 372.308,97.3076 371.5,97C 373.134,96.5065 374.801,96.3398 376.5,96.5C 376.5,95.1667 376.5,93.8333 376.5,92.5C 375.448,92.6495 374.448,92.4828 373.5,92C 374.337,90.9887 374.67,89.8221 374.5,88.5C 373.5,88.5 372.5,88.5 371.5,88.5C 371.719,89.675 371.386,90.675 370.5,91.5C 369.152,89.3886 369.485,87.5553 371.5,86C 370.536,84.2745 369.869,82.4412 369.5,80.5 Z"/></g>
<g><path style="opacity:0.068" fill="#dedede" d="M 403.5,119.5 C 405.886,120.373 407.886,121.873 409.5,124C 403.833,124.667 398.167,124.667 392.5,124C 393.085,122.698 393.751,121.531 394.5,120.5C 394.5,121.5 394.5,122.5 394.5,123.5C 398.514,123.666 402.514,123.499 406.5,123C 405.29,121.961 404.29,120.794 403.5,119.5 Z"/></g>
<g><path style="opacity:0.067" fill="#fafafa" d="M 123.5,122.5 C 124.043,122.56 124.376,122.893 124.5,123.5C 118.872,124.495 113.206,124.829 107.5,124.5C 112.833,123.833 118.167,123.167 123.5,122.5 Z"/></g>
<g><path style="opacity:1" fill="#d2802c" d="M 146.5,123.5 C 159.837,123.333 173.171,123.5 186.5,124C 189.039,125.805 190.039,128.305 189.5,131.5C 189.672,132.492 189.338,133.158 188.5,133.5C 189.092,130.369 188.092,128.036 185.5,126.5C 185.389,125.883 185.056,125.383 184.5,125C 173.172,124.5 161.838,124.333 150.5,124.5C 148.901,124.768 147.568,124.434 146.5,123.5 Z"/></g>
<g><path style="opacity:1" fill="#d0812e" d="M 216.5,123.5 C 267.833,123.5 319.167,123.5 370.5,123.5C 318.335,124.333 266.002,124.833 213.5,125C 210.038,127.239 208.705,130.406 209.5,134.5C 208.596,133.791 208.263,132.791 208.5,131.5C 207.903,125.666 210.57,122.999 216.5,123.5 Z"/></g>
<g><path style="opacity:1" fill="#efe362" d="M 439.5,118.5 C 443.55,121.038 447.217,124.204 450.5,128C 449.372,130.296 447.705,132.129 445.5,133.5C 442.877,130.375 440.044,127.375 437,124.5C 436.333,123.5 436.333,122.5 437,121.5C 438.045,120.627 438.878,119.627 439.5,118.5 Z"/></g>
<g><path style="opacity:1" fill="#330200" d="M 150.5,124.5 C 161.838,124.333 173.172,124.5 184.5,125C 185.056,125.383 185.389,125.883 185.5,126.5C 173.704,125.873 162.038,125.207 150.5,124.5 Z"/></g>
<g><path style="opacity:0.6" fill="#878787" d="M 105.5,124.5 C 102.093,126.074 98.4268,127.074 94.5,127.5C 97.7994,125.517 101.466,124.517 105.5,124.5 Z"/></g>
<g><path style="opacity:1" fill="#fea727" d="M 189.5,131.5 C 195.833,131.5 202.167,131.5 208.5,131.5C 208.263,132.791 208.596,133.791 209.5,134.5C 209.5,134.833 209.5,135.167 209.5,135.5C 209.624,137.582 210.624,139.082 212.5,140C 275.166,140.5 337.832,140.667 400.5,140.5C 402.74,157.825 397.074,171.658 383.5,182C 379.757,183.136 376.09,184.47 372.5,186C 277.999,186.167 183.666,186.667 89.5,187.5C 87.461,186.089 86.461,184.089 86.5,181.5C 86.264,173.458 86.5973,165.458 87.5,157.5C 88.8221,157.67 89.9887,157.337 91,156.5C 91.3333,154.167 91.6667,151.833 92,149.5C 93.8022,148.211 94.9688,146.544 95.5,144.5C 95.8333,144.5 96.1667,144.5 96.5,144.5C 98.1439,144.286 99.6439,144.62 101,145.5C 101.483,144.552 101.649,143.552 101.5,142.5C 103.103,142.688 104.437,142.188 105.5,141C 131.833,140.667 158.167,140.333 184.5,140C 185.056,139.617 185.389,139.117 185.5,138.5C 186.925,137.078 187.925,135.411 188.5,133.5C 189.338,133.158 189.672,132.492 189.5,131.5 Z"/></g>
<g><path style="opacity:0.588" fill="#8a8a8a" d="M 88.5,130.5 C 87.4154,132.587 85.7488,133.92 83.5,134.5C 84.5846,132.413 86.2512,131.08 88.5,130.5 Z"/></g>
<g><path style="opacity:0.02" fill="#cecece" d="M 490.5,132.5 C 490.5,133.5 490.5,134.5 490.5,135.5C 488.015,134.26 488.015,133.26 490.5,132.5 Z"/></g>
<g><path style="opacity:0.106" fill="#c3c3c3" d="M 490.5,136.5 C 492.104,137.287 492.771,138.62 492.5,140.5C 491.326,139.486 490.66,138.153 490.5,136.5 Z"/></g>
<g><path style="opacity:0.604" fill="#7c7c7c" d="M 79.5,138.5 C 79.2624,140.404 78.2624,141.738 76.5,142.5C 76.7376,140.596 77.7376,139.262 79.5,138.5 Z"/></g>
<g><path style="opacity:1" fill="#dd9c3e" d="M 185.5,138.5 C 185.389,139.117 185.056,139.617 184.5,140C 158.167,140.333 131.833,140.667 105.5,141C 104.437,142.188 103.103,142.688 101.5,142.5C 101.649,143.552 101.483,144.552 101,145.5C 99.6439,144.62 98.1439,144.286 96.5,144.5C 98.6489,142.254 101.316,140.754 104.5,140C 131.542,139.816 158.542,139.316 185.5,138.5 Z"/></g>
<g><path style="opacity:1" fill="#dc993c" d="M 209.5,135.5 C 210.962,136.458 212.295,137.624 213.5,139C 278.499,139.5 343.499,139.667 408.5,139.5C 407.87,143.048 406.87,146.381 405.5,149.5C 405.704,146.482 406.037,143.482 406.5,140.5C 404.5,140.5 402.5,140.5 400.5,140.5C 337.832,140.667 275.166,140.5 212.5,140C 210.624,139.082 209.624,137.582 209.5,135.5 Z"/></g>
<g><path style="opacity:1" fill="#efe461" d="M 465.5,134.5 C 468.254,134.784 470.92,135.451 473.5,136.5C 467.476,143.704 460.809,149.871 453.5,155C 452.398,152.599 452.231,150.099 453,147.5C 457.37,143.298 461.537,138.964 465.5,134.5 Z"/></g>
<g><path style="opacity:0.286" fill="#a1a1a1" d="M 76.5,142.5 C 76.573,144.027 75.9063,145.027 74.5,145.5C 74.427,143.973 75.0937,142.973 76.5,142.5 Z"/></g>
<g><path style="opacity:1" fill="#f8eedc" d="M 428.5,137.5 C 437.853,146.553 440.02,157.219 435,169.5C 433.487,172.524 431.487,175.191 429,177.5C 417.843,164.304 417.677,150.971 428.5,137.5 Z"/></g>
<g><path style="opacity:0.09" fill="#c9c9c9" d="M 74.5,145.5 C 74.3404,147.153 73.6737,148.486 72.5,149.5C 72.2291,147.62 72.8958,146.287 74.5,145.5 Z"/></g>
<g><path style="opacity:1" fill="#e0d86b" d="M 479.5,151.5 C 484.765,162.576 481.431,166.242 469.5,162.5C 472.855,158.813 476.189,155.147 479.5,151.5 Z"/></g>
<g><path style="opacity:0.341" fill="#969696" d="M 71.5,151.5 C 71.7062,154.495 71.0395,157.162 69.5,159.5C 69.2938,156.505 69.9605,153.838 71.5,151.5 Z"/></g>
<g><path style="opacity:0.545" fill="#8c8d8e" d="M 494.5,145.5 C 497.622,152.412 497.955,159.412 495.5,166.5C 495.623,159.471 495.29,152.471 494.5,145.5 Z"/></g>
<g><path style="opacity:1" fill="#fcee55" d="M 478.5,154.5 C 479.473,156.948 479.806,159.615 479.5,162.5C 476.813,162.664 474.146,162.497 471.5,162C 474.039,159.63 476.372,157.13 478.5,154.5 Z"/></g>
<g><path style="opacity:1" fill="#eaa53c" d="M 95.5,144.5 C 94.9688,146.544 93.8022,148.211 92,149.5C 91.6667,151.833 91.3333,154.167 91,156.5C 89.9887,157.337 88.8221,157.67 87.5,157.5C 86.5973,165.458 86.264,173.458 86.5,181.5C 85.7321,180.737 85.2321,179.737 85,178.5C 81.4437,164.775 84.9437,153.442 95.5,144.5 Z"/></g>
<g><path style="opacity:0.11" fill="#e3e3e3" d="M 69.5,159.5 C 69.3437,167.529 69.677,175.529 70.5,183.5C 68.9669,179.104 68.3002,174.437 68.5,169.5C 68.5016,165.982 68.8349,162.649 69.5,159.5 Z"/></g>
<g><path style="opacity:1" fill="#f47b03" d="M 400.5,140.5 C 402.5,140.5 404.5,140.5 406.5,140.5C 406.037,143.482 405.704,146.482 405.5,149.5C 403.735,167.233 409.735,181.566 423.5,192.5C 422.643,193.425 421.643,194.092 420.5,194.5C 417.113,195.018 413.779,195.851 410.5,197C 307.834,197.5 205.167,197.667 102.5,197.5C 96.8168,195.836 92.4835,192.502 89.5,187.5C 183.666,186.667 277.999,186.167 372.5,186C 376.09,184.47 379.757,183.136 383.5,182C 397.074,171.658 402.74,157.825 400.5,140.5 Z"/></g>
<g><path style="opacity:0.325" fill="#727272" d="M 462.5,176.5 C 465.152,176.41 467.485,177.076 469.5,178.5C 466.848,178.59 464.515,177.924 462.5,176.5 Z"/></g>
<g><path style="opacity:0.071" fill="#d0d0d0" d="M 448.5,176.5 C 448.435,179.428 447.768,182.095 446.5,184.5C 446.294,181.505 446.96,178.838 448.5,176.5 Z"/></g>
<g><path style="opacity:0.025" fill="#d6d6d6" d="M 70.5,183.5 C 71.7384,185.214 72.405,187.214 72.5,189.5C 70.9261,187.898 70.2594,185.898 70.5,183.5 Z"/></g>
<g><path style="opacity:1" fill="#b86417" d="M 420.5,194.5 C 417.285,196.856 413.619,198.356 409.5,199C 308.5,199.667 207.5,199.667 106.5,199C 104.942,198.79 103.609,198.29 102.5,197.5C 205.167,197.667 307.834,197.5 410.5,197C 413.779,195.851 417.113,195.018 420.5,194.5 Z"/></g>
<g><path style="opacity:0.337" fill="#9b9b9b" d="M 73.5,191.5 C 76.0549,193.082 77.7215,195.415 78.5,198.5C 75.5719,199.484 72.5719,199.817 69.5,199.5C 71.6979,198.835 74.0312,198.168 76.5,197.5C 75.4412,195.466 74.4412,193.466 73.5,191.5 Z"/></g>
<g><path style="opacity:0.063" fill="#c0c0c0" d="M 440.5,196.5 C 443.614,198.112 446.947,199.445 450.5,200.5C 446.452,200.16 442.452,199.494 438.5,198.5C 438.855,197.478 439.522,196.811 440.5,196.5 Z"/></g>
<g><path style="opacity:0.329" fill="#a5a5a5" d="M 69.5,199.5 C 67.1522,201.097 64.4855,202.097 61.5,202.5C 63.6975,200.603 66.3642,199.603 69.5,199.5 Z"/></g>
<g><path style="opacity:0.396" fill="#a9a9a9" d="M 60.5,202.5 C 60.0269,203.906 59.0269,204.573 57.5,204.5C 57.9731,203.094 58.9731,202.427 60.5,202.5 Z"/></g>
<g><path style="opacity:0.004" fill="#eaeaea" d="M 460.5,204.5 C 462.027,204.427 463.027,205.094 463.5,206.5C 461.973,206.573 460.973,205.906 460.5,204.5 Z"/></g>
<g><path style="opacity:0.58" fill="#7a7a7a" d="M 57.5,204.5 C 57.0269,205.906 56.0269,206.573 54.5,206.5C 54.9731,205.094 55.9731,204.427 57.5,204.5 Z"/></g>
<g><path style="opacity:0.008" fill="#d6d6d6" d="M 465.5,208.5 C 468.167,209.167 469.833,210.833 470.5,213.5C 468.5,212.167 466.833,210.5 465.5,208.5 Z"/></g>
<g><path style="opacity:0.643" fill="#686a66" d="M 54.5,206.5 C 53.0892,208.914 51.0892,210.581 48.5,211.5C 49.9108,209.086 51.9108,207.419 54.5,206.5 Z"/></g>
<g><path style="opacity:1" fill="#d29033" d="M 442.5,214.5 C 439.167,214.5 435.833,214.5 432.5,214.5C 312.236,215.331 191.903,215.831 71.5,216C 69.559,217.903 67.2257,218.736 64.5,218.5C 67.2452,215.962 70.5785,214.462 74.5,214C 197.334,213.167 320.001,213.334 442.5,214.5 Z"/></g>
<g><path style="opacity:0.271" fill="#aaaaaa" d="M 46.5,213.5 C 46.573,215.027 45.9063,216.027 44.5,216.5C 44.427,214.973 45.0937,213.973 46.5,213.5 Z"/></g>
<g><path style="opacity:1" fill="#fea727" d="M 432.5,214.5 C 435.43,232.284 429.763,246.118 415.5,256C 412.924,257.456 410.258,258.623 407.5,259.5C 299.855,260.492 192.188,260.825 84.5,260.5C 84.5,258.833 84.5,257.167 84.5,255.5C 85.5,253.833 86.8333,252.5 88.5,251.5C 96.325,247.878 100.158,241.878 100,233.5C 99.6667,233.833 99.3333,234.167 99,234.5C 95.6174,229.346 91.2841,228.013 86,230.5C 85.0497,229.978 84.2164,229.311 83.5,228.5C 82.1014,230.103 80.4347,231.437 78.5,232.5C 81.2291,234.367 80.8957,235.367 77.5,235.5C 77.0332,237.711 76.0332,239.711 74.5,241.5C 73.8076,240.975 73.3076,240.308 73,239.5C 71.2559,240.649 71.0892,241.983 72.5,243.5C 70.2573,244.474 67.924,244.808 65.5,244.5C 64.8333,244.5 64.1667,244.5 63.5,244.5C 60.3752,243.521 57.0419,243.187 53.5,243.5C 53.0366,233.778 56.37,225.778 63.5,219.5C 63.5,218.833 63.8333,218.5 64.5,218.5C 67.2257,218.736 69.559,217.903 71.5,216C 191.903,215.831 312.236,215.331 432.5,214.5 Z"/></g>
<g><path style="opacity:1" fill="#f47b02" d="M 432.5,214.5 C 435.833,214.5 439.167,214.5 442.5,214.5C 447.784,214.645 452.118,216.645 455.5,220.5C 455.703,222.044 456.37,223.378 457.5,224.5C 456.675,225.386 455.675,225.719 454.5,225.5C 454.849,228.463 453.849,230.796 451.5,232.5C 451.868,233.91 452.701,234.91 454,235.5C 454.383,231.261 456.55,228.594 460.5,227.5C 460.643,229.262 460.309,230.929 459.5,232.5C 460.631,233.604 461.465,233.271 462,231.5C 463.665,238.975 463.832,246.475 462.5,254C 460.074,256.247 459.074,259.08 459.5,262.5C 455.762,268.37 450.429,271.703 443.5,272.5C 429.791,271.852 416.458,272.519 403.5,274.5C 401.975,276.216 400.975,278.216 400.5,280.5C 393.978,280.823 387.645,280.49 381.5,279.5C 380.914,277.16 379.914,274.993 378.5,273C 280.834,272.5 183.167,272.333 85.5,272.5C 85.5,268.833 85.5,265.167 85.5,261.5C 192.501,261.667 299.501,261.5 406.5,261C 407.056,260.617 407.389,260.117 407.5,259.5C 410.258,258.623 412.924,257.456 415.5,256C 429.763,246.118 435.43,232.284 432.5,214.5 Z"/></g>
<g><path style="opacity:0.098" fill="#bfbfbf" d="M 470.5,213.5 C 472.587,214.585 473.92,216.251 474.5,218.5C 472.413,217.415 471.08,215.749 470.5,213.5 Z"/></g>
<g><path style="opacity:0.263" fill="#a3a3a3" d="M 44.5,216.5 C 44.573,218.027 43.9063,219.027 42.5,219.5C 42.427,217.973 43.0937,216.973 44.5,216.5 Z"/></g>
<g><path style="opacity:0.094" fill="#c2c2c2" d="M 42.5,219.5 C 42.3404,221.153 41.6737,222.486 40.5,223.5C 40.2291,221.62 40.8958,220.287 42.5,219.5 Z"/></g>
<g><path style="opacity:1" fill="#dc7713" d="M 455.5,220.5 C 460.669,224.159 463.836,229.159 465,235.5C 465.667,240.833 465.667,246.167 465,251.5C 464.195,255.776 462.362,259.443 459.5,262.5C 459.074,259.08 460.074,256.247 462.5,254C 463.832,246.475 463.665,238.975 462,231.5C 461.465,233.271 460.631,233.604 459.5,232.5C 460.309,230.929 460.643,229.262 460.5,227.5C 456.55,228.594 454.383,231.261 454,235.5C 452.701,234.91 451.868,233.91 451.5,232.5C 453.849,230.796 454.849,228.463 454.5,225.5C 455.675,225.719 456.675,225.386 457.5,224.5C 456.37,223.378 455.703,222.044 455.5,220.5 Z"/></g>
<g><path style="opacity:0.718" fill="#80807f" d="M 476.5,222.5 C 477.931,223.78 478.598,225.447 478.5,227.5C 476.787,226.365 476.12,224.698 476.5,222.5 Z"/></g>
<g><path style="opacity:1" fill="#d89c3f" d="M 63.5,219.5 C 56.37,225.778 53.0366,233.778 53.5,243.5C 57.0419,243.187 60.3752,243.521 63.5,244.5C 60.1401,244.616 56.8067,244.949 53.5,245.5C 52.5233,242.713 52.19,239.713 52.5,236.5C 53.1048,229.72 56.1048,224.22 61.5,220C 62.0944,219.536 62.7611,219.369 63.5,219.5 Z"/></g>
<g><path style="opacity:0.039" fill="#a0a0a0" d="M 38.5,229.5 C 38.762,230.978 38.4287,232.311 37.5,233.5C 34.8066,231.73 31.8066,231.063 28.5,231.5C 31.2301,230.183 34.0635,230.183 37,231.5C 37.2784,230.584 37.7784,229.918 38.5,229.5 Z"/></g>
<g><path style="opacity:0.129" fill="#c7c7c7" d="M 26.5,232.5 C 26.573,234.027 25.9063,235.027 24.5,235.5C 24.427,233.973 25.0937,232.973 26.5,232.5 Z"/></g>
<g><path style="opacity:1" fill="#e39e34" d="M 88.5,251.5 C 91.498,248.333 94.3314,245 97,241.5C 98.275,233.11 94.775,229.943 86.5,232C 81.8333,236.667 77.1667,241.333 72.5,246C 69.9417,246.275 67.6084,245.775 65.5,244.5C 67.924,244.808 70.2573,244.474 72.5,243.5C 71.0892,241.983 71.2559,240.649 73,239.5C 73.3076,240.308 73.8076,240.975 74.5,241.5C 76.0332,239.711 77.0332,237.711 77.5,235.5C 80.8957,235.367 81.2291,234.367 78.5,232.5C 80.4347,231.437 82.1014,230.103 83.5,228.5C 84.2164,229.311 85.0497,229.978 86,230.5C 91.2841,228.013 95.6174,229.346 99,234.5C 99.3333,234.167 99.6667,233.833 100,233.5C 100.158,241.878 96.325,247.878 88.5,251.5 Z"/></g>
<g><path style="opacity:0.441" fill="#787877" d="M 478.5,227.5 C 479.268,228.263 479.768,229.263 480,230.5C 480.5,237.492 480.666,244.492 480.5,251.5C 480.167,251.5 479.833,251.5 479.5,251.5C 479.656,243.471 479.323,235.471 478.5,227.5 Z"/></g>
<g><path style="opacity:1" fill="#633a07" d="M 52.5,236.5 C 52.19,239.713 52.5233,242.713 53.5,245.5C 53.44,246.043 53.1067,246.376 52.5,246.5C 51.1944,243.02 51.1944,239.687 52.5,236.5 Z"/></g>
<g><path style="opacity:0.008" fill="#c8c8c8" d="M 28.5,245.5 C 29.5,245.833 30.1667,246.5 30.5,247.5C 29.1667,247.5 28.5,246.833 28.5,245.5 Z"/></g>
<g><path style="opacity:0.008" fill="#cbcbcb" d="M 30.5,247.5 C 34.7927,250.106 37.4594,253.773 38.5,258.5C 35.8694,254.86 33.2028,251.193 30.5,247.5 Z"/></g>
<g><path style="opacity:0.024" fill="#dedede" d="M 479.5,251.5 C 479.833,251.5 480.167,251.5 480.5,251.5C 480.706,254.495 480.04,257.162 478.5,259.5C 478.833,256.833 479.167,254.167 479.5,251.5 Z"/></g>
<g><path style="opacity:1" fill="#ef880d" d="M 84.5,255.5 C 84.5,257.167 84.5,258.833 84.5,260.5C 192.188,260.825 299.855,260.492 407.5,259.5C 407.389,260.117 407.056,260.617 406.5,261C 299.501,261.5 192.501,261.667 85.5,261.5C 85.5,265.167 85.5,268.833 85.5,272.5C 84.8333,268.833 84.1667,265.167 83.5,261.5C 81.9378,259.099 82.2712,257.099 84.5,255.5 Z"/></g>
<g><path style="opacity:1" fill="#475760" d="M 58.5,259.5 C 63.772,258.549 67.272,260.549 69,265.5C 69.3451,272.819 65.8451,275.986 58.5,275C 53.7762,272.565 52.2762,268.731 54,263.5C 55.3968,261.93 56.8968,260.596 58.5,259.5 Z"/></g>
<g><path style="opacity:1" fill="#b56312" d="M 83.5,261.5 C 84.1667,265.167 84.8333,268.833 85.5,272.5C 183.167,272.333 280.834,272.5 378.5,273C 379.914,274.993 380.914,277.16 381.5,279.5C 381.167,279.5 380.833,279.5 380.5,279.5C 379.723,276.888 378.056,275.055 375.5,274C 278.167,273.5 180.834,273.333 83.5,273.5C 83.5,269.5 83.5,265.5 83.5,261.5 Z"/></g>
<g><path style="opacity:1" fill="#b56412" d="M 443.5,272.5 C 430.295,273.201 416.962,273.868 403.5,274.5C 416.458,272.519 429.791,271.852 443.5,272.5 Z"/></g>
<g><path style="opacity:0.008" fill="#d2d2d2" d="M 470.5,273.5 C 469.833,276.167 468.167,277.833 465.5,278.5C 466.833,276.5 468.5,274.833 470.5,273.5 Z"/></g>
<g><path style="opacity:0.151" fill="#e3e3e3" d="M 40.5,278.5 C 41.2674,279.172 41.9341,280.005 42.5,281C 39.854,281.497 37.1873,281.664 34.5,281.5C 36.8439,281.06 38.8439,280.06 40.5,278.5 Z"/></g>
<g><path style="opacity:0.039" fill="#dadada" d="M 464.5,279.5 C 464.557,280.609 464.89,281.609 465.5,282.5C 462.285,282.013 461.952,281.013 464.5,279.5 Z"/></g>
<g><path style="opacity:0.631" fill="#858585" d="M 34.5,281.5 C 32.1617,283.04 29.4951,283.706 26.5,283.5C 28.9052,282.232 31.5718,281.565 34.5,281.5 Z"/></g>
<g><path style="opacity:0.443" fill="#9c9c9d" d="M 20.5,286.5 C 20.0269,287.906 19.0269,288.573 17.5,288.5C 17.9731,287.094 18.9731,286.427 20.5,286.5 Z"/></g>
<g><path style="opacity:1" fill="#471e00" d="M 375.5,287.5 C 285.5,288.167 195.5,288.833 105.5,289.5C 104.957,289.44 104.624,289.107 104.5,288.5C 194.831,287.5 285.164,287.167 375.5,287.5 Z"/></g>
<g><path style="opacity:1" fill="#fea726" d="M 431.5,289.5 C 432.486,293.97 432.819,298.637 432.5,303.5C 432.05,308.776 430.55,313.776 428,318.5C 422.653,325.744 415.82,330.91 407.5,334C 375.541,335.463 343.541,335.963 311.5,335.5C 309.358,329.883 306.692,324.55 303.5,319.5C 303.291,318.078 302.791,316.745 302,315.5C 298.651,312.43 295.484,309.264 292.5,306C 291.207,305.51 289.873,305.343 288.5,305.5C 286.847,305.34 285.514,304.674 284.5,303.5C 284.244,301.224 282.91,300.057 280.5,300C 282.226,298.47 284.226,297.47 286.5,297C 285.833,296.667 285.167,296.333 284.5,296C 272.176,296.305 259.842,296.305 247.5,296C 249.212,293.481 251.379,292.981 254,294.5C 256.147,293.887 258.314,293.221 260.5,292.5C 260.291,291.914 259.957,291.414 259.5,291C 298.833,290.667 338.167,290.333 377.5,290C 380.011,287.674 381.344,284.841 381.5,281.5C 387.044,282.865 392.71,283.865 398.5,284.5C 400.005,285.842 400.672,287.508 400.5,289.5C 410.833,289.5 421.167,289.5 431.5,289.5 Z"/></g>
<g><path style="opacity:1" fill="#e8a951" d="M 375.5,287.5 C 376.167,287.5 376.833,287.5 377.5,287.5C 377.389,288.117 377.056,288.617 376.5,289C 287.498,289.167 198.498,289.667 109.5,290.5C 110.127,291.417 110.461,292.417 110.5,293.5C 108.833,292.167 107.167,290.833 105.5,289.5C 195.5,288.833 285.5,288.167 375.5,287.5 Z"/></g>
<g><path style="opacity:0.384" fill="#999999" d="M 469.5,286.5 C 471.262,287.262 472.262,288.596 472.5,290.5C 470.738,289.738 469.738,288.404 469.5,286.5 Z"/></g>
<g><path style="opacity:1" fill="#f4a533" d="M 380.5,279.5 C 380.833,279.5 381.167,279.5 381.5,279.5C 387.645,280.49 393.978,280.823 400.5,280.5C 401.057,283.792 402.724,286.292 405.5,288C 414.16,288.5 422.827,288.666 431.5,288.5C 431.5,288.833 431.5,289.167 431.5,289.5C 421.167,289.5 410.833,289.5 400.5,289.5C 400.672,287.508 400.005,285.842 398.5,284.5C 392.71,283.865 387.044,282.865 381.5,281.5C 381.344,284.841 380.011,287.674 377.5,290C 338.167,290.333 298.833,290.667 259.5,291C 259.957,291.414 260.291,291.914 260.5,292.5C 258.314,293.221 256.147,293.887 254,294.5C 251.379,292.981 249.212,293.481 247.5,296C 259.842,296.305 272.176,296.305 284.5,296C 285.167,296.333 285.833,296.667 286.5,297C 284.226,297.47 282.226,298.47 280.5,300C 282.91,300.057 284.244,301.224 284.5,303.5C 252.442,290.889 227.109,298.889 208.5,327.5C 208.331,325.088 208.997,322.921 210.5,321C 210.355,320.228 210.022,319.561 209.5,319C 211.359,318.316 213.026,317.316 214.5,316C 213.833,315.667 213.167,315.333 212.5,315C 213.793,314.51 215.127,314.343 216.5,314.5C 216.36,312.876 217.027,311.71 218.5,311C 217.044,310.577 216.544,309.744 217,308.5C 217.333,308.833 217.667,309.167 218,309.5C 219.825,308.897 221.659,308.23 223.5,307.5C 222.106,306.313 222.273,305.646 224,305.5C 226.078,306.943 226.911,306.276 226.5,303.5C 230.137,303.513 233.137,302.18 235.5,299.5C 233.149,298.988 231.149,297.988 229.5,296.5C 233.439,294.691 237.439,293.191 241.5,292C 244.047,291.34 246.547,291.507 249,292.5C 250.059,292.37 250.892,291.87 251.5,291C 205.496,290.167 159.496,290.333 113.5,291.5C 114.856,294.442 116.523,296.442 118.5,297.5C 119.489,300.438 120.156,303.438 120.5,306.5C 121.5,306.5 122.5,306.5 123.5,306.5C 122.014,309.9 122.18,313.233 124,316.5C 124.667,321.167 124.667,325.833 124,330.5C 123.292,331.381 122.458,332.047 121.5,332.5C 124.827,317.469 121.16,304.469 110.5,293.5C 110.461,292.417 110.127,291.417 109.5,290.5C 198.498,289.667 287.498,289.167 376.5,289C 377.056,288.617 377.389,288.117 377.5,287.5C 379.278,285.171 380.278,282.504 380.5,279.5 Z"/></g>
<g><path style="opacity:0.62" fill="#757576" d="M 17.5,288.5 C 16.0892,290.914 14.0892,292.581 11.5,293.5C 12.9108,291.086 14.9108,289.419 17.5,288.5 Z"/></g>
<g><path style="opacity:0.275" fill="#a4a4a4" d="M 472.5,290.5 C 473.906,290.973 474.573,291.973 474.5,293.5C 473.094,293.027 472.427,292.027 472.5,290.5 Z"/></g>
<g><path style="opacity:1" fill="#f57b01" d="M 453.5,342.5 C 452.101,343.89 450.434,344.89 448.5,345.5C 403.85,346.469 359.183,346.802 314.5,346.5C 314.802,343.941 314.468,341.607 313.5,339.5C 312.655,338.329 311.989,336.995 311.5,335.5C 343.541,335.963 375.541,335.463 407.5,334C 415.82,330.91 422.653,325.744 428,318.5C 430.55,313.776 432.05,308.776 432.5,303.5C 433.665,302.504 434.332,301.171 434.5,299.5C 433.973,296.692 433.973,294.025 434.5,291.5C 438.459,290.34 442.459,290.173 446.5,291C 448.169,292.669 450.169,293.502 452.5,293.5C 452.67,294.822 452.337,295.989 451.5,297C 454.02,299.798 456.687,301.631 459.5,302.5C 458.675,303.386 457.675,303.719 456.5,303.5C 456.351,304.552 456.517,305.552 457,306.5C 457.654,305.304 458.154,305.304 458.5,306.5C 457.572,307.768 457.405,309.101 458,310.5C 459,309.167 460,307.833 461,306.5C 463.328,311.494 464.161,316.827 463.5,322.5C 460.401,322.092 458.067,323.259 456.5,326C 457.563,327.188 458.897,327.688 460.5,327.5C 460.312,325.897 460.812,324.563 462,323.5C 463.338,328.033 462.171,331.7 458.5,334.5C 457.571,335.689 457.238,337.022 457.5,338.5C 453.509,337.872 452.176,339.205 453.5,342.5 Z"/></g>
<g><path style="opacity:0.157" fill="#cccccc" d="M 474.5,293.5 C 475.906,293.973 476.573,294.973 476.5,296.5C 475.094,296.027 474.427,295.027 474.5,293.5 Z"/></g>
<g><path style="opacity:0.467" fill="#aaaaaa" d="M 9.5,295.5 C 9.26242,297.404 8.26242,298.738 6.5,299.5C 6.73758,297.596 7.73758,296.262 9.5,295.5 Z"/></g>
<g><path style="opacity:1" fill="#f3e76e" d="M 64.5,291.5 C 64.5,295.833 64.5,300.167 64.5,304.5C 62.1667,304.5 59.8333,304.5 57.5,304.5C 57.3343,300.154 57.501,295.821 58,291.5C 60.1632,290.232 62.3298,290.232 64.5,291.5 Z"/></g>
<g><path style="opacity:1" fill="#fea726" d="M 208.5,327.5 C 208.06,330.38 207.06,333.046 205.5,335.5C 204.833,335.5 204.167,335.5 203.5,335.5C 176.165,335.333 148.831,335.5 121.5,336C 120.756,337.039 119.756,337.539 118.5,337.5C 119.752,335.999 120.752,334.332 121.5,332.5C 122.458,332.047 123.292,331.381 124,330.5C 124.667,325.833 124.667,321.167 124,316.5C 122.18,313.233 122.014,309.9 123.5,306.5C 122.5,306.5 121.5,306.5 120.5,306.5C 120.156,303.438 119.489,300.438 118.5,297.5C 116.523,296.442 114.856,294.442 113.5,291.5C 159.496,290.333 205.496,290.167 251.5,291C 250.892,291.87 250.059,292.37 249,292.5C 246.547,291.507 244.047,291.34 241.5,292C 237.439,293.191 233.439,294.691 229.5,296.5C 231.149,297.988 233.149,298.988 235.5,299.5C 233.137,302.18 230.137,303.513 226.5,303.5C 226.911,306.276 226.078,306.943 224,305.5C 222.273,305.646 222.106,306.313 223.5,307.5C 221.659,308.23 219.825,308.897 218,309.5C 217.667,309.167 217.333,308.833 217,308.5C 216.544,309.744 217.044,310.577 218.5,311C 217.027,311.71 216.36,312.876 216.5,314.5C 215.127,314.343 213.793,314.51 212.5,315C 213.167,315.333 213.833,315.667 214.5,316C 213.026,317.316 211.359,318.316 209.5,319C 210.022,319.561 210.355,320.228 210.5,321C 208.997,322.921 208.331,325.088 208.5,327.5 Z"/></g>
<g><path style="opacity:1" fill="#f7eddc" d="M 34.5,296.5 C 37.1667,296.5 39.8333,296.5 42.5,296.5C 41.5191,314.148 32.1857,323.481 14.5,324.5C 14.8056,310.535 21.4723,301.202 34.5,296.5 Z"/></g>
<g><path style="opacity:0.086" fill="#e0e0e0" d="M 476.5,296.5 C 477.931,297.78 478.598,299.447 478.5,301.5C 477.069,300.22 476.402,298.553 476.5,296.5 Z"/></g>
<g><path style="opacity:0.161" fill="#c5c5c5" d="M 6.5,299.5 C 6.57298,301.027 5.90632,302.027 4.5,302.5C 4.42702,300.973 5.09368,299.973 6.5,299.5 Z"/></g>
<g><path style="opacity:1" fill="#f8eedc" d="M 79.5,296.5 C 93.1365,296.295 102.303,302.629 107,315.5C 107.498,318.482 107.665,321.482 107.5,324.5C 89.852,323.519 80.5187,314.185 79.5,296.5 Z"/></g>
<g><path style="opacity:1" fill="#e87b0f" d="M 431.5,289.5 C 431.5,289.167 431.5,288.833 431.5,288.5C 448.599,286.314 459.599,293.314 464.5,309.5C 464.546,316.191 464.212,322.857 463.5,329.5C 461.836,335.183 458.502,339.517 453.5,342.5C 452.176,339.205 453.509,337.872 457.5,338.5C 457.238,337.022 457.571,335.689 458.5,334.5C 462.171,331.7 463.338,328.033 462,323.5C 460.812,324.563 460.312,325.897 460.5,327.5C 458.897,327.688 457.563,327.188 456.5,326C 458.067,323.259 460.401,322.092 463.5,322.5C 464.161,316.827 463.328,311.494 461,306.5C 460,307.833 459,309.167 458,310.5C 457.405,309.101 457.572,307.768 458.5,306.5C 458.154,305.304 457.654,305.304 457,306.5C 456.517,305.552 456.351,304.552 456.5,303.5C 457.675,303.719 458.675,303.386 459.5,302.5C 456.687,301.631 454.02,299.798 451.5,297C 452.337,295.989 452.67,294.822 452.5,293.5C 450.169,293.502 448.169,292.669 446.5,291C 442.459,290.173 438.459,290.34 434.5,291.5C 433.973,294.025 433.973,296.692 434.5,299.5C 434.332,301.171 433.665,302.504 432.5,303.5C 432.819,298.637 432.486,293.97 431.5,289.5 Z"/></g>
<g><path style="opacity:1" fill="#635d25" d="M 64.5,291.5 C 65.4861,295.97 65.8195,300.637 65.5,305.5C 62.6146,305.806 59.9479,305.473 57.5,304.5C 59.8333,304.5 62.1667,304.5 64.5,304.5C 64.5,300.167 64.5,295.833 64.5,291.5 Z"/></g>
<g><path style="opacity:0.022" fill="#dcdcdc" d="M 2.5,306.5 C 2.40505,308.786 1.73838,310.786 0.5,312.5C 0.25939,310.102 0.926057,308.102 2.5,306.5 Z"/></g>
<g><path style="opacity:1" fill="#df9f3e" d="M 288.5,305.5 C 289.873,305.343 291.207,305.51 292.5,306C 295.484,309.264 298.651,312.43 302,315.5C 302.791,316.745 303.291,318.078 303.5,319.5C 299.113,314.146 294.113,309.48 288.5,305.5 Z"/></g>
<g><path style="opacity:1" fill="#be511b" d="M 275.5,316.5 C 263.376,313.507 251.376,313.84 239.5,317.5C 244.911,313.603 251.078,311.936 258,312.5C 264.363,312.051 270.197,313.385 275.5,316.5 Z"/></g>
<g><path style="opacity:1" fill="#e55001" d="M 275.5,316.5 C 287.036,321.042 294.37,329.375 297.5,341.5C 298.97,350.248 298.637,358.915 296.5,367.5C 295.34,371.651 293.34,375.318 290.5,378.5C 284.495,377.839 281.161,380.506 280.5,386.5C 278.801,386.34 277.134,386.506 275.5,387C 275.833,387.333 276.167,387.667 276.5,388C 274.833,388.333 273.167,388.667 271.5,389C 271.833,389.333 272.167,389.667 272.5,390C 264.95,392.069 257.283,392.736 249.5,392C 246.45,390.802 243.45,389.635 240.5,388.5C 236.658,390.471 233.491,389.804 231,386.5C 230.311,387.357 229.478,388.023 228.5,388.5C 225.874,386.763 223.541,384.096 221.5,380.5C 222.796,376.369 222.796,372.369 221.5,368.5C 219.903,360.568 219.403,352.568 220,344.5C 222.316,338.706 224.816,333.039 227.5,327.5C 230.271,322.769 234.271,319.436 239.5,317.5C 251.376,313.84 263.376,313.507 275.5,316.5 Z"/></g>
<g><path style="opacity:0.458" fill="#8b8b8b" d="M 478.5,301.5 C 480.126,306.738 481.126,312.238 481.5,318C 480.841,320.462 480.507,322.962 480.5,325.5C 480.167,325.5 479.833,325.5 479.5,325.5C 479.656,317.471 479.323,309.471 478.5,301.5 Z"/></g>
<g><path style="opacity:1" fill="#9d520f" d="M 464.5,309.5 C 465.164,311.81 465.497,314.31 465.5,317C 465.606,321.427 464.94,325.594 463.5,329.5C 464.212,322.857 464.546,316.191 464.5,309.5 Z"/></g>
<g><path style="opacity:1" fill="#dfd356" d="M 51.5,319.5 C 58.1998,319.17 64.8665,319.503 71.5,320.5C 73.3274,322.487 74.3274,324.821 74.5,327.5C 65.5,327.5 56.5,327.5 47.5,327.5C 48.2872,324.592 49.6205,321.926 51.5,319.5 Z"/></g>
<g><path style="opacity:0.025" fill="#d9dad9" d="M 479.5,325.5 C 479.833,325.5 480.167,325.5 480.5,325.5C 480.706,328.495 480.04,331.162 478.5,333.5C 478.833,330.833 479.167,328.167 479.5,325.5 Z"/></g>
<g><path style="opacity:1" fill="#be4d13" d="M 227.5,327.5 C 224.816,333.039 222.316,338.706 220,344.5C 219.403,352.568 219.903,360.568 221.5,368.5C 215.861,356.393 216.361,344.393 223,332.5C 224.049,330.382 225.549,328.716 227.5,327.5 Z"/></g>
<g><path style="opacity:0.118" fill="#c5c5c5" d="M 0.5,332.5 C 1.67373,333.514 2.3404,334.847 2.5,336.5C 0.895779,335.713 0.229113,334.38 0.5,332.5 Z"/></g>
<g><path style="opacity:0.2" fill="#bdbdbd" d="M 32.5,336.5 C 33.1894,335.226 34.0228,335.226 35,336.5C 35.813,338.436 36.313,340.436 36.5,342.5C 35.3472,340.364 34.0138,338.364 32.5,336.5 Z"/></g>
<g><path style="opacity:0.125" fill="#bbbbbb" d="M 36.5,342.5 C 37.6737,343.514 38.3404,344.847 38.5,346.5C 36.8958,345.713 36.2291,344.38 36.5,342.5 Z"/></g>
<g><path style="opacity:1" fill="#dacf5a" d="M 53.5,341.5 C 58.5,341.5 63.5,341.5 68.5,341.5C 63.6861,353.422 58.6861,353.422 53.5,341.5 Z"/></g>
<g><path style="opacity:1" fill="#d97e20" d="M 92.5,337.5 C 90.8561,337.286 89.3561,337.62 88,338.5C 87.433,341.168 86.933,343.834 86.5,346.5C 125.167,346.5 163.833,346.5 202.5,346.5C 202.323,342.766 202.656,339.099 203.5,335.5C 204.167,335.5 204.833,335.5 205.5,335.5C 204.197,339.382 203.53,343.382 203.5,347.5C 163.494,347.833 123.494,347.5 83.5,346.5C 85.393,343.382 86.7264,340.049 87.5,336.5C 89.4385,335.366 91.1052,335.7 92.5,337.5 Z"/></g>
<g><path style="opacity:1" fill="#f57b02" d="M 203.5,335.5 C 202.656,339.099 202.323,342.766 202.5,346.5C 163.833,346.5 125.167,346.5 86.5,346.5C 86.933,343.834 87.433,341.168 88,338.5C 89.3561,337.62 90.8561,337.286 92.5,337.5C 101.179,340.108 109.846,340.108 118.5,337.5C 119.756,337.539 120.756,337.039 121.5,336C 148.831,335.5 176.165,335.333 203.5,335.5 Z"/></g>
<g><path style="opacity:1" fill="#d87d21" d="M 313.5,339.5 C 314.468,341.607 314.802,343.941 314.5,346.5C 359.183,346.802 403.85,346.469 448.5,345.5C 447.737,346.268 446.737,346.768 445.5,347C 401.501,347.5 357.501,347.667 313.5,347.5C 313.5,344.833 313.5,342.167 313.5,339.5 Z"/></g>
<g><path style="opacity:0.008" fill="#d3d3d3" d="M 472.5,345.5 C 472.573,347.027 471.906,348.027 470.5,348.5C 470.427,346.973 471.094,345.973 472.5,345.5 Z"/></g>
<g><path style="opacity:1" fill="#a44617" d="M 297.5,341.5 C 299.039,344.865 299.706,348.531 299.5,352.5C 299.866,357.898 298.866,362.898 296.5,367.5C 298.637,358.915 298.97,350.248 297.5,341.5 Z"/></g>
<g><path style="opacity:1" fill="#1c0000" d="M 409.5,362.5 C 377.493,362.167 345.493,362.5 313.5,363.5C 312.609,367.444 311.276,371.111 309.5,374.5C 310.184,370.429 311.184,366.429 312.5,362.5C 344.997,361.17 377.331,361.17 409.5,362.5 Z"/></g>
<g><path style="opacity:0.043" fill="#dddddd" d="M 75.5,362.5 C 79.0007,362.351 79.3341,363.351 76.5,365.5C 76.4431,364.391 76.1098,363.391 75.5,362.5 Z"/></g>
<g><path style="opacity:1" fill="#c49148" d="M 204.5,367.5 C 203.751,366.469 203.085,365.302 202.5,364C 168.81,363.194 135.144,363.361 101.5,364.5C 102.263,363.732 103.263,363.232 104.5,363C 137.5,362.333 170.5,362.333 203.5,363C 204.38,364.356 204.714,365.856 204.5,367.5 Z"/></g>
<g><path style="opacity:0.045" fill="#f3f3f3" d="M 442.5,362.5 C 441.833,363.167 441.167,363.833 440.5,364.5C 439.711,364.217 439.044,363.717 438.5,363C 439.793,362.51 441.127,362.343 442.5,362.5 Z"/></g>
<g><path style="opacity:1" fill="#e1a03d" d="M 409.5,362.5 C 410.492,362.328 411.158,362.662 411.5,363.5C 407.298,363.183 403.298,363.517 399.5,364.5C 371.167,364.5 342.833,364.5 314.5,364.5C 314.487,369.26 313.82,373.926 312.5,378.5C 311.808,377.975 311.308,377.308 311,376.5C 310.502,378.544 309.335,379.878 307.5,380.5C 308.167,378.5 308.833,376.5 309.5,374.5C 311.276,371.111 312.609,367.444 313.5,363.5C 345.493,362.5 377.493,362.167 409.5,362.5 Z"/></g>
<g><path style="opacity:1" fill="#fea727" d="M 399.5,364.5 C 403.075,379.88 398.742,392.713 386.5,403C 381.351,406.384 375.684,408.384 369.5,409C 334.502,409.5 299.502,409.667 264.5,409.5C 264.5,409.167 264.5,408.833 264.5,408.5C 283.346,405.921 297.68,396.588 307.5,380.5C 309.335,379.878 310.502,378.544 311,376.5C 311.308,377.308 311.808,377.975 312.5,378.5C 313.82,373.926 314.487,369.26 314.5,364.5C 342.833,364.5 371.167,364.5 399.5,364.5 Z"/></g>
<g><path style="opacity:1" fill="#f57b02" d="M 399.5,364.5 C 403.298,363.517 407.298,363.183 411.5,363.5C 419.737,364.738 425.737,369.071 429.5,376.5C 431.863,385.787 432.03,395.121 430,404.5C 429.549,402.071 428.715,401.904 427.5,404C 428.406,405.699 428.739,407.533 428.5,409.5C 425.983,414.689 421.983,418.022 416.5,419.5C 313.855,420.491 211.189,420.824 108.5,420.5C 108.5,419.5 108.5,418.5 108.5,417.5C 106.116,417.443 103.782,417.777 101.5,418.5C 99.6663,417.246 97.6663,416.579 95.5,416.5C 92.1886,415.189 89.8552,412.855 88.5,409.5C 147.167,409.5 205.833,409.5 264.5,409.5C 299.502,409.667 334.502,409.5 369.5,409C 375.684,408.384 381.351,406.384 386.5,403C 398.742,392.713 403.075,379.88 399.5,364.5 Z"/></g>
<g><path style="opacity:1" fill="#fda727" d="M 204.5,367.5 C 205.813,371.623 207.813,375.457 210.5,379C 212.81,379.497 215.143,379.663 217.5,379.5C 221.845,384.844 226.845,389.511 232.5,393.5C 230.176,398.98 231.843,402.813 237.5,405C 246.252,407.951 255.252,409.118 264.5,408.5C 264.5,408.833 264.5,409.167 264.5,409.5C 205.833,409.5 147.167,409.5 88.5,409.5C 85.4296,399.71 84.7629,389.71 86.5,379.5C 89.1667,372.167 94.1667,367.167 101.5,364.5C 135.144,363.361 168.81,363.194 202.5,364C 203.085,365.302 203.751,366.469 204.5,367.5 Z"/></g>
<g><path style="opacity:0.239" fill="#a2a2a2" d="M 76.5,365.5 C 76.573,367.027 75.9063,368.027 74.5,368.5C 74.427,366.973 75.0937,365.973 76.5,365.5 Z"/></g>
<g><path style="opacity:0.204" fill="#bcbcbc" d="M 441.5,366.5 C 442.906,366.973 443.573,367.973 443.5,369.5C 442.094,369.027 441.427,368.027 441.5,366.5 Z"/></g>
<g><path style="opacity:0.094" fill="#c4c4c4" d="M 74.5,368.5 C 74.3404,370.153 73.6737,371.486 72.5,372.5C 72.2291,370.62 72.8958,369.287 74.5,368.5 Z"/></g>
<g><path style="opacity:0.627" fill="#adadad" d="M 71.5,374.5 C 69.8203,383.739 69.1537,393.073 69.5,402.5C 68.346,396.013 68.1794,389.346 69,382.5C 69.546,379.621 70.3794,376.954 71.5,374.5 Z"/></g>
<g><path style="opacity:1" fill="#be6b1b" d="M 429.5,376.5 C 432.533,381.12 433.866,386.286 433.5,392C 433.728,398.472 432.061,404.305 428.5,409.5C 428.739,407.533 428.406,405.699 427.5,404C 428.715,401.904 429.549,402.071 430,404.5C 432.03,395.121 431.863,385.787 429.5,376.5 Z"/></g>
<g><path style="opacity:0.261" fill="#b9bab8" d="M 446.5,376.5 C 448.052,381.401 448.719,386.568 448.5,392C 448.499,396.015 448.165,399.849 447.5,403.5C 447.68,394.472 447.347,385.472 446.5,376.5 Z"/></g>
<g><path style="opacity:1" fill="#c95112" d="M 221.5,368.5 C 222.796,372.369 222.796,376.369 221.5,380.5C 223.541,384.096 225.874,386.763 228.5,388.5C 229.478,388.023 230.311,387.357 231,386.5C 233.491,389.804 236.658,390.471 240.5,388.5C 243.45,389.635 246.45,390.802 249.5,392C 257.283,392.736 264.95,392.069 272.5,390C 272.167,389.667 271.833,389.333 271.5,389C 273.167,388.667 274.833,388.333 276.5,388C 276.167,387.667 275.833,387.333 275.5,387C 277.134,386.506 278.801,386.34 280.5,386.5C 281.161,380.506 284.495,377.839 290.5,378.5C 276.205,394.03 259.039,398.03 239,390.5C 236.198,390.32 234.031,391.32 232.5,393.5C 226.845,389.511 221.845,384.844 217.5,379.5C 221.011,376.805 222.344,373.138 221.5,368.5 Z"/></g>
<g><path style="opacity:1" fill="#de9e41" d="M 86.5,379.5 C 84.7629,389.71 85.4296,399.71 88.5,409.5C 87.065,407.402 85.8984,405.069 85,402.5C 84.3333,395.833 84.3333,389.167 85,382.5C 85.2321,381.263 85.7321,380.263 86.5,379.5 Z"/></g>
<g><path style="opacity:0.271" fill="#ababae" d="M 447.5,404.5 C 447.405,406.786 446.738,408.786 445.5,410.5C 445.259,408.102 445.926,406.102 447.5,404.5 Z"/></g>
<g><path style="opacity:0.02" fill="#dbdbdb" d="M 70.5,406.5 C 71.7384,408.214 72.405,410.214 72.5,412.5C 70.9261,410.898 70.2594,408.898 70.5,406.5 Z"/></g>
<g><path style="opacity:0.004" fill="#dddddd" d="M 74.5,416.5 C 75.9063,416.973 76.573,417.973 76.5,419.5C 75.0937,419.027 74.427,418.027 74.5,416.5 Z"/></g>
<g><path style="opacity:1" fill="#bf6c16" d="M 95.5,416.5 C 97.6663,416.579 99.6663,417.246 101.5,418.5C 103.782,417.777 106.116,417.443 108.5,417.5C 108.5,418.5 108.5,419.5 108.5,420.5C 211.189,420.824 313.855,420.491 416.5,419.5C 414.723,420.6 412.723,421.434 410.5,422C 309.167,422.667 207.833,422.667 106.5,422C 102.224,421.195 98.557,419.362 95.5,416.5 Z"/></g>
<g><path style="opacity:0.012" fill="#d0d0d0" d="M 77.5,420.5 C 78.9063,420.973 79.573,421.973 79.5,423.5C 78.0937,423.027 77.427,422.027 77.5,420.5 Z"/></g>
<g><path style="opacity:0.416" fill="#a6a6a6" d="M 81.5,425.5 C 83.4044,425.738 84.7377,426.738 85.5,428.5C 83.5956,428.262 82.2623,427.262 81.5,425.5 Z"/></g>
<g><path style="opacity:0.204" fill="#919696" d="M 88.5,430.5 C 90.0269,430.427 91.0269,431.094 91.5,432.5C 89.9731,432.573 88.9731,431.906 88.5,430.5 Z"/></g>
<g><path style="opacity:0.424" fill="#727272" d="M 96.5,434.5 C 99.1522,434.41 101.485,435.076 103.5,436.5C 100.772,436.829 98.4385,436.163 96.5,434.5 Z"/></g>
<g><path style="opacity:0.271" fill="#848484" d="M 104.5,436.5 C 111.167,436.5 117.833,436.5 124.5,436.5C 124.771,438.38 124.104,439.713 122.5,440.5C 122.414,439.504 122.748,438.671 123.5,438C 116.987,437.828 110.653,437.328 104.5,436.5 Z"/></g>
<g><path style="opacity:0.288" fill="#909090" d="M 412.5,436.5 C 407.015,437.327 401.348,437.827 395.5,438C 394.748,438.671 394.414,439.504 394.5,440.5C 393.609,439.739 392.942,438.739 392.5,437.5C 399.134,436.503 405.8,436.17 412.5,436.5 Z"/></g>
<g><path style="opacity:1" fill="#c18832" d="M 368.5,437.5 C 361.646,437.176 354.979,437.509 348.5,438.5C 279.811,438.18 211.144,438.513 142.5,439.5C 143.842,438.207 145.509,437.374 147.5,437C 221.334,436.168 295.001,436.334 368.5,437.5 Z"/></g>
<g><path style="opacity:1" fill="#fea727" d="M 348.5,438.5 C 343.531,462.303 329.198,477.136 305.5,483C 254.167,483.333 202.833,483.667 151.5,484C 152.756,484.417 153.423,485.25 153.5,486.5C 145.535,481.252 140.535,473.918 138.5,464.5C 137.541,458.862 137.374,453.195 138,447.5C 139.323,444.691 140.823,442.025 142.5,439.5C 211.144,438.513 279.811,438.18 348.5,438.5 Z"/></g>
<g><path style="opacity:1" fill="#f47c03" d="M 368.5,437.5 C 378.95,440.041 383.116,446.707 381,457.5C 379.001,469.334 373.501,479.168 364.5,487C 362.922,488.094 361.255,488.928 359.5,489.5C 355.117,490.584 350.783,491.918 346.5,493.5C 286.148,494.818 225.814,494.818 165.5,493.5C 160.835,492.172 156.835,489.839 153.5,486.5C 153.423,485.25 152.756,484.417 151.5,484C 202.833,483.667 254.167,483.333 305.5,483C 329.198,477.136 343.531,462.303 348.5,438.5C 354.979,437.509 361.646,437.176 368.5,437.5 Z"/></g>
<g><path style="opacity:0.482" fill="#9e9e9e" d="M 394.5,440.5 C 396.118,443.171 396.785,446.171 396.5,449.5C 395.343,446.727 394.676,443.727 394.5,440.5 Z"/></g>
<g><path style="opacity:0.392" fill="#959595" d="M 122.5,441.5 C 121.167,449.833 121.167,458.167 122.5,466.5C 121.732,465.737 121.232,464.737 121,463.5C 120.333,457.167 120.333,450.833 121,444.5C 121.232,443.263 121.732,442.263 122.5,441.5 Z"/></g>
<g><path style="opacity:1" fill="#cb933d" d="M 142.5,439.5 C 140.823,442.025 139.323,444.691 138,447.5C 137.374,453.195 137.541,458.862 138.5,464.5C 134.947,457.677 134.781,450.677 138,443.5C 139.371,441.959 140.871,440.625 142.5,439.5 Z"/></g>
<g><path style="opacity:0.027" fill="#cfcfcf" d="M 396.5,459.5 C 396.706,462.495 396.04,465.162 394.5,467.5C 394.565,464.572 395.232,461.905 396.5,459.5 Z"/></g>
<g><path style="opacity:0.173" fill="#c3c3c3" d="M 394.5,468.5 C 394.598,470.553 393.931,472.22 392.5,473.5C 392.402,471.447 393.069,469.78 394.5,468.5 Z"/></g>
<g><path style="opacity:0.086" fill="#c9c9c9" d="M 392.5,473.5 C 392.771,475.38 392.104,476.713 390.5,477.5C 390.66,475.847 391.326,474.514 392.5,473.5 Z"/></g>
<g><path style="opacity:0.004" fill="#dedede" d="M 390.5,478.5 C 390.573,480.027 389.906,481.027 388.5,481.5C 388.427,479.973 389.094,478.973 390.5,478.5 Z"/></g>
<g><path style="opacity:0.008" fill="#dddddd" d="M 128.5,481.5 C 129.906,481.973 130.573,482.973 130.5,484.5C 129.094,484.027 128.427,483.027 128.5,481.5 Z"/></g>
<g><path style="opacity:0.004" fill="#dadada" d="M 130.5,484.5 C 131.906,484.973 132.573,485.973 132.5,487.5C 131.094,487.027 130.427,486.027 130.5,484.5 Z"/></g>
<g><path style="opacity:0.012" fill="#cbc9ca" d="M 383.5,488.5 C 383.573,490.027 382.906,491.027 381.5,491.5C 381.427,489.973 382.094,488.973 383.5,488.5 Z"/></g>
<g><path style="opacity:0.008" fill="#cecece" d="M 134.5,489.5 C 135.906,489.973 136.573,490.973 136.5,492.5C 135.094,492.027 134.427,491.027 134.5,489.5 Z"/></g>
<g><path style="opacity:0.373" fill="#a0a0a0" d="M 138.5,494.5 C 140.404,494.738 141.738,495.738 142.5,497.5C 140.596,497.262 139.262,496.262 138.5,494.5 Z"/></g>
<g><path style="opacity:1" fill="#d47820" d="M 359.5,489.5 C 354.83,492.992 349.497,495.159 343.5,496C 286.5,496.667 229.5,496.667 172.5,496C 169.896,495.61 167.562,494.776 165.5,493.5C 225.814,494.818 286.148,494.818 346.5,493.5C 350.783,491.918 355.117,490.584 359.5,489.5 Z"/></g>
<g><path style="opacity:0.157" fill="#a6a6a6" d="M 147.5,501.5 C 149.027,501.427 150.027,502.094 150.5,503.5C 148.973,503.573 147.973,502.906 147.5,501.5 Z"/></g>
<g><path style="opacity:0.502" fill="#858586" d="M 158.5,507.5 C 162.427,507.926 166.093,508.926 169.5,510.5C 165.466,510.483 161.799,509.483 158.5,507.5 Z"/></g>
</svg>
